<?xml version="1.0" encoding="UTF-8"?>
<svg xmlns="http://www.w3.org/2000/svg" xmlns:xlink="http://www.w3.org/1999/xlink" width="280px" height="101px" viewBox="0 0 280 101" version="1.1">
<g id="surface1">
<path style=" stroke:none;fill-rule:nonzero;fill:rgb(100%,100%,100%);fill-opacity:1;" d="M 215.046875 31.082031 C 215.046875 30.679688 215.308594 30.410156 215.710938 30.410156 C 216.101562 30.410156 216.371094 30.679688 216.371094 31.082031 L 216.234375 35.601562 C 217.558594 34.40625 218.882812 32.945312 220.332031 31.613281 L 220.332031 25.890625 C 220.332031 25.492188 220.597656 25.226562 220.992188 25.226562 C 221.390625 25.226562 221.652344 25.492188 221.652344 25.890625 L 221.523438 30.410156 C 222.839844 29.085938 224.296875 27.753906 225.617188 26.421875 L 225.617188 20.703125 C 225.617188 20.300781 225.882812 20.039062 226.28125 20.039062 C 226.675781 20.039062 226.9375 20.300781 226.9375 20.703125 L 226.804688 25.226562 C 231.300781 20.839844 234.996094 17.246094 234.996094 17.246094 C 233.410156 16.980469 231.695312 17.113281 229.847656 17.375 C 229.714844 17.375 229.582031 17.375 229.445312 17.511719 C 229.183594 17.511719 228.921875 17.644531 228.652344 17.644531 C 228.523438 17.644531 228.523438 17.644531 228.390625 17.644531 C 224.695312 18.574219 220.859375 20.703125 217.425781 23.765625 C 216.234375 24.960938 215.046875 26.160156 214.125 27.355469 C 211.480469 31.082031 209.765625 35.601562 209.367188 40.390625 C 209.367188 40.921875 209.367188 42.121094 209.367188 42.121094 C 209.367188 42.121094 211.613281 39.859375 214.917969 36.664062 L 214.917969 31.082031 Z M 215.046875 31.082031 "/>
<path style=" stroke:none;fill-rule:nonzero;fill:rgb(100%,100%,100%);fill-opacity:1;" d="M 235.789062 17.90625 C 235.789062 17.90625 232.09375 21.5 227.597656 26.023438 L 232.09375 26.023438 C 232.488281 26.023438 232.75 26.292969 232.75 26.691406 C 232.75 27.085938 232.488281 27.355469 232.09375 27.355469 L 226.410156 27.085938 C 225.089844 28.417969 223.769531 29.75 222.316406 31.082031 L 226.675781 31.082031 C 227.074219 31.082031 227.335938 31.34375 227.335938 31.742188 C 227.335938 32.144531 227.074219 32.40625 226.675781 32.40625 L 221.125 32.144531 C 219.675781 33.476562 218.351562 34.800781 217.027344 36.132812 L 221.253906 36.132812 C 221.652344 36.132812 221.917969 36.402344 221.917969 36.800781 C 221.917969 37.195312 221.652344 37.464844 221.253906 37.464844 L 215.839844 37.195312 C 212.667969 40.390625 210.289062 42.652344 210.289062 42.652344 C 210.289062 42.652344 211.480469 42.652344 212.007812 42.652344 C 216.765625 42.515625 221.253906 40.921875 225.089844 38.265625 C 226.410156 37.332031 227.597656 36.265625 228.789062 35.070312 C 231.957031 31.742188 234.074219 27.886719 235.128906 24.296875 C 235.128906 24.160156 235.128906 24.160156 235.128906 24.027344 C 235.261719 23.765625 235.261719 23.496094 235.261719 23.226562 C 235.261719 23.097656 235.261719 22.964844 235.398438 22.964844 C 235.921875 21.234375 236.054688 19.507812 235.789062 17.90625 Z M 235.789062 17.90625 "/>
<path style=" stroke:none;fill-rule:nonzero;fill:rgb(100%,100%,100%);fill-opacity:1;" d="M 165.5 44.910156 L 165.5 87.746094 C 178.3125 81.628906 193.378906 81.628906 206.324219 87.746094 L 206.324219 45.980469 C 193.511719 39.589844 178.3125 38.527344 165.5 44.910156 Z M 165.5 44.910156 "/>
<path style=" stroke:none;fill-rule:nonzero;fill:rgb(100%,100%,100%);fill-opacity:1;" d="M 214.515625 78.433594 L 214.515625 74.308594 L 216.632812 74.308594 L 216.632812 74.839844 L 215.046875 74.839844 L 215.046875 76.171875 L 216.503906 76.171875 L 216.503906 76.703125 L 215.046875 76.703125 L 215.046875 78.035156 L 216.632812 78.035156 L 216.632812 78.566406 L 214.515625 78.566406 Z M 214.515625 78.433594 "/>
<path style=" stroke:none;fill-rule:nonzero;fill:rgb(100%,100%,100%);fill-opacity:1;" d="M 217.820312 74.308594 C 218.351562 74.308594 218.882812 74.308594 219.40625 74.308594 C 220.597656 74.308594 221.253906 75.242188 221.253906 76.304688 C 221.253906 77.503906 220.46875 78.433594 219.144531 78.433594 L 217.820312 78.433594 Z M 218.351562 78.035156 C 218.613281 78.035156 219.011719 78.035156 219.144531 78.035156 C 220.066406 78.035156 220.46875 77.371094 220.46875 76.441406 C 220.46875 75.640625 219.9375 74.839844 219.144531 74.839844 L 218.351562 74.839844 Z M 218.351562 78.035156 "/>
<path style=" stroke:none;fill-rule:nonzero;fill:rgb(100%,100%,100%);fill-opacity:1;" d="M 225.488281 74.308594 L 225.488281 76.304688 C 225.488281 77.371094 225.351562 78.566406 223.769531 78.566406 C 222.316406 78.566406 222.316406 77.371094 222.316406 76.441406 L 222.316406 74.308594 L 222.839844 74.308594 L 222.839844 76.304688 C 222.839844 77.234375 222.976562 78.035156 223.902344 78.035156 C 224.824219 78.035156 224.957031 77.371094 224.957031 76.441406 L 224.957031 74.308594 Z M 225.488281 74.308594 "/>
<path style=" stroke:none;fill-rule:nonzero;fill:rgb(100%,100%,100%);fill-opacity:1;" d="M 229.714844 78.304688 C 229.316406 78.433594 229.054688 78.566406 228.523438 78.566406 C 227.335938 78.566406 226.675781 77.636719 226.675781 76.441406 C 226.675781 75.242188 227.46875 74.308594 228.789062 74.308594 C 229.183594 74.308594 229.445312 74.308594 229.714844 74.445312 C 229.714844 74.707031 229.714844 74.976562 229.714844 75.109375 C 229.445312 74.976562 229.054688 74.839844 228.789062 74.839844 C 227.730469 74.839844 227.335938 75.640625 227.335938 76.441406 C 227.335938 77.371094 227.867188 78.035156 228.789062 78.035156 C 229.183594 78.035156 229.582031 77.902344 229.847656 77.773438 Z M 229.714844 78.304688 "/>
<path style=" stroke:none;fill-rule:nonzero;fill:rgb(100%,100%,100%);fill-opacity:1;" d="M 233.542969 78.433594 L 233.148438 77.371094 L 231.5625 77.371094 L 231.167969 78.433594 L 230.507812 78.433594 L 232.09375 74.308594 L 232.617188 74.308594 L 234.074219 78.433594 Z M 232.355469 74.839844 C 232.355469 75.109375 232.09375 75.910156 231.957031 76.441406 L 231.824219 76.972656 L 233.148438 76.972656 Z M 232.355469 74.839844 "/>
<path style=" stroke:none;fill-rule:nonzero;fill:rgb(100%,100%,100%);fill-opacity:1;" d="M 237.90625 78.304688 C 237.507812 78.433594 237.246094 78.566406 236.714844 78.566406 C 235.527344 78.566406 234.867188 77.636719 234.867188 76.441406 C 234.867188 75.242188 235.660156 74.308594 236.984375 74.308594 C 237.375 74.308594 237.640625 74.308594 237.90625 74.445312 C 237.90625 74.707031 237.90625 74.976562 237.90625 75.109375 C 237.640625 74.976562 237.246094 74.839844 236.984375 74.839844 C 235.921875 74.839844 235.527344 75.640625 235.527344 76.441406 C 235.527344 77.371094 236.054688 78.035156 236.984375 78.035156 C 237.375 78.035156 237.777344 77.902344 238.039062 77.773438 Z M 237.90625 78.304688 "/>
<path style=" stroke:none;fill-rule:nonzero;fill:rgb(100%,100%,100%);fill-opacity:1;" d="M 239.09375 78.433594 L 239.09375 74.308594 L 239.625 74.308594 L 239.625 78.433594 Z M 239.09375 78.433594 "/>
<path style=" stroke:none;fill-rule:nonzero;fill:rgb(100%,100%,100%);fill-opacity:1;" d="M 242.925781 74.308594 C 244.113281 74.308594 244.777344 75.242188 244.777344 76.441406 C 244.777344 77.636719 243.851562 78.566406 242.660156 78.566406 C 241.472656 78.566406 240.8125 77.636719 240.8125 76.441406 C 240.8125 75.242188 241.734375 74.308594 242.925781 74.308594 Z M 242.796875 78.035156 C 243.71875 78.035156 244.246094 77.371094 244.246094 76.441406 C 244.246094 75.507812 243.71875 74.707031 242.796875 74.707031 C 241.867188 74.707031 241.339844 75.378906 241.339844 76.304688 C 241.472656 77.234375 242.003906 78.035156 242.796875 78.035156 Z M 242.796875 74.046875 L 242.398438 74.046875 C 242.398438 73.914062 242.527344 73.644531 242.796875 73.378906 L 242.925781 73.113281 L 243.453125 73.113281 Z M 242.796875 74.046875 "/>
<path style=" stroke:none;fill-rule:nonzero;fill:rgb(100%,100%,100%);fill-opacity:1;" d="M 248.871094 78.433594 C 248.871094 78.433594 248.472656 77.902344 248.339844 77.636719 L 246.492188 74.976562 C 246.625 75.242188 246.625 76.039062 246.625 77.101562 L 246.625 78.304688 L 246.097656 78.304688 L 246.097656 74.175781 L 246.753906 74.175781 L 249.132812 77.503906 C 249.003906 77.101562 249.003906 76.441406 249.003906 75.378906 L 249.003906 74.175781 L 249.535156 74.175781 L 249.535156 78.304688 L 248.871094 78.304688 Z M 248.871094 78.433594 "/>
<path style=" stroke:none;fill-rule:nonzero;fill:rgb(100%,100%,100%);fill-opacity:1;" d="M 252.96875 78.433594 L 252.4375 78.433594 L 252.4375 74.308594 C 252.835938 74.308594 253.230469 74.308594 253.628906 74.308594 C 254.421875 74.308594 254.949219 74.707031 254.949219 75.507812 C 254.949219 76.171875 254.554688 76.570312 253.890625 76.703125 L 255.214844 78.566406 L 254.554688 78.566406 L 253.363281 76.839844 C 253.230469 76.839844 253.097656 76.839844 253.097656 76.839844 L 253.097656 78.433594 Z M 252.96875 76.304688 C 253.097656 76.304688 253.230469 76.304688 253.363281 76.304688 C 253.890625 76.304688 254.292969 76.039062 254.292969 75.640625 C 254.292969 75.109375 253.890625 74.976562 253.5 74.976562 C 253.363281 74.976562 253.230469 74.976562 252.96875 74.976562 Z M 252.96875 76.304688 "/>
<path style=" stroke:none;fill-rule:nonzero;fill:rgb(100%,100%,100%);fill-opacity:1;" d="M 259.441406 74.308594 L 259.441406 76.304688 C 259.441406 77.371094 259.3125 78.566406 257.726562 78.566406 C 256.269531 78.566406 256.269531 77.371094 256.269531 76.441406 L 256.269531 74.308594 L 256.800781 74.308594 L 256.800781 76.304688 C 256.800781 77.234375 256.933594 78.035156 257.855469 78.035156 C 258.78125 78.035156 258.914062 77.371094 258.914062 76.441406 L 258.914062 74.308594 Z M 259.441406 74.308594 "/>
<path style=" stroke:none;fill-rule:nonzero;fill:rgb(100%,100%,100%);fill-opacity:1;" d="M 261.292969 78.433594 L 260.761719 78.433594 L 260.761719 74.308594 C 261.160156 74.308594 261.554688 74.308594 261.953125 74.308594 C 262.746094 74.308594 263.269531 74.707031 263.269531 75.507812 C 263.269531 76.171875 262.878906 76.570312 262.214844 76.703125 L 263.539062 78.566406 L 262.878906 78.566406 L 261.691406 76.839844 C 261.554688 76.839844 261.421875 76.839844 261.421875 76.839844 L 261.421875 78.433594 Z M 261.292969 76.304688 C 261.421875 76.304688 261.554688 76.304688 261.691406 76.304688 C 262.214844 76.304688 262.613281 76.039062 262.613281 75.640625 C 262.613281 75.109375 262.214844 74.976562 261.820312 74.976562 C 261.691406 74.976562 261.554688 74.976562 261.292969 74.976562 Z M 261.292969 76.304688 "/>
<path style=" stroke:none;fill-rule:nonzero;fill:rgb(100%,100%,100%);fill-opacity:1;" d="M 267.105469 78.433594 L 266.710938 77.371094 L 265.125 77.371094 L 264.726562 78.433594 L 264.0625 78.433594 L 265.648438 74.308594 L 266.179688 74.308594 L 267.636719 78.433594 Z M 265.917969 74.839844 C 265.917969 75.109375 265.648438 75.910156 265.519531 76.441406 L 265.386719 76.972656 L 266.710938 76.972656 Z M 265.917969 74.839844 "/>
<path style=" stroke:none;fill-rule:nonzero;fill:rgb(100%,100%,100%);fill-opacity:1;" d="M 268.691406 78.433594 L 268.691406 74.308594 L 269.222656 74.308594 L 269.222656 77.902344 L 270.9375 77.902344 L 270.9375 78.433594 Z M 268.691406 78.433594 "/>
<path style=" stroke:none;fill-rule:nonzero;fill:rgb(100%,100%,100%);fill-opacity:1;" d="M 214.515625 85.351562 L 214.515625 81.230469 C 214.917969 81.230469 215.308594 81.230469 215.710938 81.230469 C 216.503906 81.230469 217.027344 81.761719 217.027344 82.425781 C 217.027344 83.222656 216.371094 83.753906 215.441406 83.753906 C 215.308594 83.753906 215.179688 83.753906 215.046875 83.753906 L 215.046875 85.351562 Z M 215.441406 83.355469 C 215.972656 83.355469 216.371094 83.09375 216.371094 82.554688 C 216.371094 82.023438 216.101562 81.761719 215.578125 81.761719 C 215.308594 81.761719 215.179688 81.761719 215.046875 81.761719 L 215.046875 83.355469 C 215.179688 83.355469 215.308594 83.355469 215.441406 83.355469 Z M 215.441406 83.355469 "/>
<path style=" stroke:none;fill-rule:nonzero;fill:rgb(100%,100%,100%);fill-opacity:1;" d="M 220.597656 85.351562 L 220.199219 84.289062 L 218.613281 84.289062 L 218.21875 85.351562 L 217.558594 85.351562 L 219.144531 81.230469 L 219.675781 81.230469 L 221.125 85.351562 Z M 219.40625 81.761719 C 219.40625 82.023438 219.144531 82.824219 219.011719 83.355469 L 218.882812 83.886719 L 220.199219 83.886719 Z M 219.40625 81.761719 "/>
<path style=" stroke:none;fill-rule:nonzero;fill:rgb(100%,100%,100%);fill-opacity:1;" d="M 222.839844 85.351562 L 222.316406 85.351562 L 222.316406 81.230469 C 222.710938 81.230469 223.109375 81.230469 223.503906 81.230469 C 224.296875 81.230469 224.824219 81.628906 224.824219 82.425781 C 224.824219 83.09375 224.425781 83.488281 223.769531 83.625 L 225.089844 85.488281 L 224.425781 85.488281 L 223.238281 83.753906 C 223.109375 83.753906 222.976562 83.753906 222.976562 83.753906 L 222.976562 85.351562 Z M 222.839844 83.222656 C 222.976562 83.222656 223.109375 83.222656 223.238281 83.222656 C 223.769531 83.222656 224.164062 82.957031 224.164062 82.554688 C 224.164062 82.023438 223.769531 81.894531 223.371094 81.894531 C 223.238281 81.894531 223.109375 81.894531 222.839844 81.894531 Z M 222.839844 83.222656 "/>
<path style=" stroke:none;fill-rule:nonzero;fill:rgb(100%,100%,100%);fill-opacity:1;" d="M 228.652344 85.351562 L 228.261719 84.289062 L 226.675781 84.289062 L 226.28125 85.351562 L 225.617188 85.351562 L 227.203125 81.230469 L 227.730469 81.230469 L 229.183594 85.351562 Z M 227.335938 81.761719 C 227.335938 82.023438 227.074219 82.824219 226.9375 83.355469 L 226.804688 83.886719 L 228.128906 83.886719 Z M 227.335938 81.761719 "/>
<path style=" stroke:none;fill-rule:nonzero;fill:rgb(100%,100%,100%);fill-opacity:1;" d="M 234.605469 85.351562 L 234.203125 84.289062 L 232.617188 84.289062 L 232.226562 85.351562 L 231.5625 85.351562 L 233.148438 81.230469 L 233.679688 81.230469 L 235.128906 85.351562 Z M 233.410156 81.761719 C 233.410156 82.023438 233.148438 82.824219 233.019531 83.355469 L 232.886719 83.886719 L 234.203125 83.886719 Z M 233.410156 81.761719 "/>
<path style=" stroke:none;fill-rule:nonzero;fill:rgb(100%,100%,100%);fill-opacity:1;" d="M 238.960938 85.351562 C 238.960938 85.351562 238.5625 84.820312 238.433594 84.554688 L 236.582031 81.894531 C 236.714844 82.160156 236.714844 82.957031 236.714844 84.019531 L 236.714844 85.21875 L 236.191406 85.21875 L 236.191406 81.230469 L 236.847656 81.230469 L 239.226562 84.554688 C 239.09375 84.15625 239.09375 83.488281 239.09375 82.425781 L 239.09375 81.230469 L 239.625 81.230469 L 239.625 85.351562 Z M 238.960938 85.351562 "/>
<path style=" stroke:none;fill-rule:nonzero;fill:rgb(100%,100%,100%);fill-opacity:1;" d="M 242.265625 81.761719 L 242.265625 85.351562 L 241.734375 85.351562 L 241.734375 81.761719 L 240.417969 81.761719 L 240.417969 81.230469 L 243.453125 81.230469 L 243.453125 81.761719 Z M 242.265625 81.761719 "/>
<path style=" stroke:none;fill-rule:nonzero;fill:rgb(100%,100%,100%);fill-opacity:1;" d="M 244.511719 85.351562 L 244.511719 81.230469 L 245.039062 81.230469 L 245.039062 85.351562 Z M 244.511719 85.351562 "/>
<path style=" stroke:none;fill-rule:nonzero;fill:rgb(100%,100%,100%);fill-opacity:1;" d="M 248.339844 81.09375 C 249.535156 81.09375 250.195312 82.023438 250.195312 83.222656 C 250.195312 84.417969 249.265625 85.351562 248.078125 85.351562 C 246.890625 85.351562 246.230469 84.417969 246.230469 83.222656 C 246.230469 82.023438 247.023438 81.09375 248.339844 81.09375 Z M 248.210938 84.949219 C 249.132812 84.949219 249.664062 84.289062 249.664062 83.355469 C 249.664062 82.425781 249.132812 81.628906 248.210938 81.628906 C 247.285156 81.628906 246.753906 82.292969 246.753906 83.222656 C 246.753906 84.15625 247.285156 84.949219 248.210938 84.949219 Z M 248.210938 84.949219 "/>
<path style=" stroke:none;fill-rule:nonzero;fill:rgb(100%,100%,100%);fill-opacity:1;" d="M 253.230469 81.09375 C 254.421875 81.09375 255.078125 82.023438 255.078125 83.222656 C 255.078125 84.417969 254.292969 85.351562 252.96875 85.351562 C 251.777344 85.351562 251.121094 84.417969 251.121094 83.222656 C 251.121094 82.023438 252.042969 81.09375 253.230469 81.09375 Z M 253.097656 84.949219 C 254.023438 84.949219 254.554688 84.289062 254.554688 83.222656 C 254.554688 82.292969 254.023438 81.492188 253.097656 81.492188 C 252.175781 81.492188 251.644531 82.160156 251.644531 83.09375 C 251.777344 84.15625 252.304688 84.949219 253.097656 84.949219 Z M 255.609375 86.414062 C 254.554688 86.28125 254.023438 85.488281 253.097656 85.488281 C 253.363281 85.488281 253.628906 85.488281 253.890625 85.351562 C 254.421875 85.351562 254.816406 85.882812 255.609375 86.019531 C 255.609375 86.019531 255.609375 86.28125 255.609375 86.414062 Z M 255.609375 86.414062 "/>
<path style=" stroke:none;fill-rule:nonzero;fill:rgb(100%,100%,100%);fill-opacity:1;" d="M 259.574219 81.230469 L 259.574219 83.222656 C 259.574219 84.289062 259.441406 85.488281 257.855469 85.488281 C 256.402344 85.488281 256.402344 84.289062 256.402344 83.355469 L 256.402344 81.230469 L 256.933594 81.230469 L 256.933594 83.222656 C 256.933594 84.15625 257.0625 84.949219 257.988281 84.949219 C 258.914062 84.949219 259.042969 84.289062 259.042969 83.355469 L 259.042969 81.230469 Z M 259.574219 81.230469 "/>
<path style=" stroke:none;fill-rule:nonzero;fill:rgb(100%,100%,100%);fill-opacity:1;" d="M 260.898438 85.351562 L 260.898438 81.230469 L 261.421875 81.230469 L 261.421875 85.351562 Z M 260.898438 85.351562 "/>
<path style=" stroke:none;fill-rule:nonzero;fill:rgb(100%,100%,100%);fill-opacity:1;" d="M 265.386719 85.351562 L 264.992188 84.289062 L 263.40625 84.289062 L 263.007812 85.351562 L 262.347656 85.351562 L 263.933594 81.230469 L 264.464844 81.230469 L 265.917969 85.351562 Z M 264.0625 81.761719 C 264.0625 82.023438 263.800781 82.824219 263.671875 83.355469 L 263.539062 83.886719 L 264.855469 83.886719 Z M 264.0625 81.761719 "/>
<path style=" stroke:none;fill-rule:nonzero;fill:rgb(100%,100%,100%);fill-opacity:1;" d="M 207.386719 46.511719 L 210.027344 46.511719 L 210.027344 87.613281 L 207.386719 87.613281 Z M 207.386719 46.511719 "/>
<path style=" stroke:none;fill-rule:nonzero;fill:rgb(100%,100%,100%);fill-opacity:1;" d="M 208.703125 5.269531 C 204.476562 8.597656 201.703125 15.117188 201.703125 22.300781 C 201.703125 22.433594 201.703125 22.566406 201.703125 22.832031 C 204.875 26.421875 207.648438 30.679688 208.574219 34.667969 C 209.496094 30.546875 212.273438 26.421875 215.441406 22.832031 C 215.441406 22.695312 215.441406 22.566406 215.441406 22.300781 C 215.578125 15.25 212.929688 8.597656 208.703125 5.269531 Z M 208.703125 5.269531 "/>
<path style=" stroke:none;fill-rule:nonzero;fill:rgb(100%,100%,100%);fill-opacity:1;" d="M 179.105469 27.886719 C 176.464844 27.886719 173.824219 28.285156 171.445312 28.816406 L 171.445312 40.523438 C 175.410156 39.195312 180.167969 38.394531 185.449219 38.394531 C 194.4375 38.394531 202.367188 40.789062 206.722656 44.246094 C 201.304688 34.539062 191 27.886719 179.105469 27.886719 Z M 179.105469 27.886719 "/>
<path style=" stroke:none;fill-rule:nonzero;fill:rgb(100%,100%,100%);fill-opacity:1;" d="M 207.910156 42.515625 C 207.910156 28.6875 196.683594 16.980469 183.339844 16.980469 L 183.339844 26.421875 C 186.644531 26.824219 190.207031 27.886719 193.644531 29.480469 C 200.511719 32.675781 205.53125 37.59375 207.910156 42.515625 Z M 207.910156 42.515625 "/>
<path style=" stroke:none;fill-rule:nonzero;fill:rgb(100%,100%,100%);fill-opacity:1;" d="M 218.089844 59.410156 C 218.21875 61.011719 218.746094 62.203125 219.804688 63.003906 C 220.859375 63.804688 222.183594 64.066406 223.902344 64.066406 C 224.824219 64.066406 225.75 63.9375 226.675781 63.804688 C 227.597656 63.667969 228.523438 63.40625 229.445312 63.003906 C 229.714844 63.535156 229.976562 64.199219 230.238281 65 C 230.507812 65.800781 230.640625 66.59375 230.640625 67.523438 C 228.523438 68.324219 226.144531 68.726562 223.503906 68.726562 C 221.523438 68.726562 219.804688 68.457031 218.480469 67.925781 C 217.027344 67.394531 215.972656 66.59375 215.046875 65.660156 C 214.125 64.734375 213.460938 63.535156 213.066406 62.203125 C 212.667969 60.878906 212.40625 59.410156 212.40625 57.816406 C 212.40625 56.222656 212.667969 54.757812 213.066406 53.425781 C 213.460938 52.09375 214.125 50.898438 215.046875 49.835938 C 215.839844 48.769531 217.027344 47.972656 218.21875 47.441406 C 219.539062 46.910156 220.992188 46.511719 222.710938 46.511719 C 224.164062 46.511719 225.488281 46.773438 226.675781 47.304688 C 227.867188 47.835938 228.789062 48.503906 229.582031 49.4375 C 230.375 50.367188 231.03125 51.429688 231.433594 52.625 C 231.824219 53.824219 232.09375 55.15625 232.09375 56.621094 C 232.09375 57.152344 232.09375 57.683594 232.09375 58.214844 C 232.09375 58.746094 231.957031 59.148438 231.957031 59.410156 Z M 226.410156 55.421875 C 226.410156 54.089844 226.011719 53.027344 225.351562 52.230469 C 224.695312 51.429688 223.769531 51.03125 222.578125 51.03125 C 221.253906 51.03125 220.199219 51.429688 219.40625 52.230469 C 218.746094 53.027344 218.21875 54.089844 218.089844 55.421875 Z M 226.410156 55.421875 "/>
<path style=" stroke:none;fill-rule:nonzero;fill:rgb(100%,100%,100%);fill-opacity:1;" d="M 237.640625 47.042969 C 238.039062 46.910156 238.433594 46.910156 238.832031 46.910156 C 239.226562 46.910156 239.625 46.910156 240.019531 46.910156 C 240.417969 46.910156 240.8125 46.910156 241.210938 47.042969 C 241.605469 47.042969 242.003906 47.175781 242.398438 47.304688 C 242.527344 47.441406 242.527344 47.707031 242.660156 47.835938 C 242.796875 48.105469 242.796875 48.375 242.796875 48.636719 C 242.796875 48.90625 242.925781 49.167969 242.925781 49.4375 C 242.925781 49.699219 243.058594 49.96875 243.058594 50.101562 C 243.71875 49.304688 244.382812 48.503906 245.304688 47.835938 C 246.230469 47.175781 247.285156 46.773438 248.609375 46.773438 C 248.871094 46.773438 249.132812 46.773438 249.535156 46.773438 C 249.925781 46.773438 250.195312 46.910156 250.328125 46.910156 C 250.328125 47.175781 250.457031 47.441406 250.457031 47.835938 C 250.457031 48.238281 250.457031 48.503906 250.457031 48.90625 C 250.457031 49.4375 250.457031 49.835938 250.457031 50.367188 C 250.457031 50.898438 250.328125 51.429688 250.195312 51.964844 C 249.925781 51.964844 249.535156 51.832031 249.132812 51.832031 C 248.742188 51.832031 248.609375 51.832031 248.472656 51.832031 C 247.949219 51.832031 247.546875 51.832031 246.890625 51.964844 C 246.363281 52.09375 245.832031 52.363281 245.304688 52.761719 C 244.777344 53.164062 244.382812 53.824219 243.984375 54.625 C 243.589844 55.421875 243.453125 56.621094 243.453125 58.082031 L 243.453125 68.195312 C 242.925781 68.324219 242.527344 68.324219 242.003906 68.324219 C 241.472656 68.324219 241.078125 68.324219 240.546875 68.324219 C 240.019531 68.324219 239.625 68.324219 239.09375 68.324219 C 238.5625 68.324219 238.167969 68.195312 237.640625 68.195312 Z M 237.640625 47.042969 "/>
<path style=" stroke:none;fill-rule:nonzero;fill:rgb(100%,100%,100%);fill-opacity:1;" d="M 265.386719 54.359375 C 265.386719 53.695312 265.257812 53.164062 265.125 52.761719 C 264.855469 52.363281 264.59375 51.964844 264.199219 51.832031 C 263.800781 51.5625 263.40625 51.429688 262.746094 51.300781 C 262.085938 51.164062 261.554688 51.164062 260.898438 51.164062 C 259.441406 51.164062 257.855469 51.429688 256.140625 51.964844 C 255.742188 51.300781 255.476562 50.632812 255.347656 49.96875 C 255.214844 49.304688 255.078125 48.636719 255.078125 47.707031 C 256.269531 47.304688 257.457031 47.042969 258.648438 46.773438 C 259.835938 46.640625 261.027344 46.511719 261.953125 46.511719 C 264.726562 46.511719 266.972656 47.175781 268.558594 48.503906 C 270.144531 49.835938 270.9375 52.09375 270.9375 55.019531 L 270.9375 67.394531 C 270.015625 67.664062 268.820312 67.925781 267.503906 68.195312 C 266.179688 68.457031 264.59375 68.59375 262.878906 68.59375 C 261.421875 68.59375 260.234375 68.457031 259.042969 68.195312 C 257.855469 67.925781 256.933594 67.523438 256.007812 66.992188 C 255.078125 66.460938 254.554688 65.660156 254.023438 64.734375 C 253.628906 63.804688 253.363281 62.734375 253.363281 61.410156 C 253.363281 60.078125 253.628906 59.015625 254.15625 58.082031 C 254.683594 57.152344 255.476562 56.484375 256.269531 55.953125 C 257.195312 55.421875 258.121094 55.019531 259.175781 54.757812 C 260.234375 54.488281 261.292969 54.359375 262.476562 54.359375 C 263.269531 54.359375 264.199219 54.359375 265.125 54.488281 L 265.125 54.359375 Z M 265.386719 58.484375 C 265.125 58.484375 264.726562 58.347656 264.332031 58.347656 C 263.933594 58.347656 263.671875 58.347656 263.269531 58.347656 C 261.953125 58.347656 260.898438 58.617188 260.105469 59.015625 C 259.3125 59.546875 258.914062 60.210938 258.914062 61.273438 C 258.914062 61.941406 259.042969 62.472656 259.3125 62.871094 C 259.574219 63.265625 259.96875 63.535156 260.367188 63.667969 C 260.761719 63.804688 261.292969 63.9375 261.691406 63.9375 C 262.214844 63.9375 262.613281 63.9375 262.878906 63.9375 C 263.269531 63.9375 263.671875 63.9375 264.0625 63.804688 C 264.464844 63.667969 264.855469 63.667969 265.125 63.667969 L 265.125 58.484375 Z M 265.386719 58.484375 "/>
<path style="fill:none;stroke-width:1;stroke-linecap:butt;stroke-linejoin:miter;stroke:rgb(100%,100%,100%);stroke-opacity:1;stroke-miterlimit:10;" d="M 98.599775 13.200612 L 98.599775 68.60167 " transform="matrix(1.321258,0,0,1.330215,1.4,0.0848804)"/>
<path style=" stroke:none;fill-rule:evenodd;fill:rgb(100%,100%,100%);fill-opacity:1;" d="M 26.5 36.933594 L 26.902344 37.195312 L 27.292969 37.464844 L 29.28125 37.464844 L 29.804688 37.195312 L 30.335938 36.933594 L 30.734375 36.664062 L 30.996094 36.265625 L 31.390625 35.601562 L 31.390625 33.738281 L 30.996094 33.207031 L 30.597656 32.804688 L 30.203125 32.542969 L 29.410156 32.542969 L 29.148438 32.804688 L 28.75 33.074219 L 28.617188 33.207031 L 28.355469 33.476562 L 27.824219 33.738281 L 27.292969 34.007812 L 26.902344 34.40625 L 26.636719 34.800781 L 26.238281 35.339844 L 25.976562 36.402344 L 26.238281 36.664062 Z M 26.5 36.933594 "/>
<path style=" stroke:none;fill-rule:evenodd;fill:rgb(100%,100%,100%);fill-opacity:1;" d="M 57.554688 36.933594 L 57.816406 37.195312 L 58.347656 37.464844 L 60.195312 37.464844 L 60.726562 37.195312 L 61.253906 36.933594 L 61.648438 36.664062 L 62.046875 36.265625 L 62.3125 35.601562 L 62.3125 33.738281 L 62.046875 33.207031 L 61.648438 32.804688 L 61.253906 32.542969 L 60.460938 32.542969 L 60.195312 32.804688 L 59.800781 33.074219 L 59.667969 33.207031 L 59.269531 33.476562 L 58.875 33.738281 L 58.347656 34.007812 L 57.816406 34.40625 L 57.554688 34.800781 L 57.160156 35.339844 L 57.160156 35.871094 L 57.023438 36.402344 L 57.160156 36.664062 Z M 57.554688 36.933594 "/>
<path style=" stroke:none;fill-rule:evenodd;fill:rgb(100%,100%,100%);fill-opacity:1;" d="M 32.316406 52.625 L 32.183594 53.292969 L 32.316406 53.824219 L 32.453125 54.089844 L 33.246094 53.957031 L 34.167969 53.824219 L 34.429688 53.824219 L 34.960938 53.558594 L 35.355469 52.894531 L 35.753906 52.625 L 36.015625 52.09375 L 36.410156 51.429688 L 36.941406 50.898438 L 36.941406 49.835938 L 36.808594 49.4375 L 36.679688 48.90625 L 36.410156 48.375 L 36.28125 47.835938 L 36.015625 47.441406 L 35.617188 46.910156 L 35.222656 46.773438 L 34.429688 46.773438 L 34.429688 46.910156 L 33.769531 47.304688 L 33.769531 47.574219 L 33.246094 48.375 L 32.976562 48.90625 L 32.582031 49.835938 L 32.183594 50.5 L 32.050781 51.164062 L 31.921875 51.832031 L 32.183594 52.09375 Z M 32.316406 52.625 "/>
<path style=" stroke:none;fill-rule:evenodd;fill:rgb(100%,100%,100%);fill-opacity:1;" d="M 68.785156 73.246094 L 68.253906 73.113281 L 67.863281 73.246094 L 67.726562 73.246094 L 67.460938 73.378906 L 66.933594 73.644531 L 66.40625 73.914062 L 66.007812 74.707031 L 65.875 75.378906 L 66.277344 75.773438 L 66.539062 76.039062 L 67.460938 76.039062 L 67.726562 75.773438 L 67.992188 75.640625 L 68.386719 75.378906 L 68.917969 75.109375 L 69.3125 74.578125 L 69.3125 73.777344 Z M 68.785156 73.246094 "/>
<path style=" stroke:none;fill-rule:evenodd;fill:rgb(100%,100%,100%);fill-opacity:1;" d="M 69.578125 54.359375 L 69.046875 54.226562 L 68.65625 54.359375 L 68.386719 54.359375 L 68.253906 54.488281 L 67.726562 54.890625 L 67.199219 55.019531 L 66.800781 55.820312 L 66.667969 56.484375 L 66.933594 56.882812 L 67.332031 57.152344 L 68.253906 57.152344 L 68.65625 56.753906 L 69.179688 56.484375 L 69.578125 56.089844 L 70.105469 55.820312 L 70.105469 55.421875 L 69.972656 54.890625 Z M 69.578125 54.359375 "/>
<path style=" stroke:none;fill-rule:evenodd;fill:rgb(100%,100%,100%);fill-opacity:1;" d="M 97.453125 46.511719 L 93.355469 43.714844 L 95.472656 42.253906 L 95.472656 41.984375 L 97.984375 40.523438 L 92.964844 37.734375 L 95.472656 36.265625 L 97.191406 34.800781 L 93.757812 32.011719 L 95.472656 30.546875 L 95.472656 30.148438 L 97.191406 28.6875 L 93.757812 25.890625 L 95.472656 24.429688 L 95.472656 24.160156 L 97.191406 22.832031 L 93.757812 20.039062 L 95.472656 18.574219 L 97.984375 17.113281 L 92.832031 14.71875 L 92.433594 7.265625 L 89 10.59375 L 87.148438 8.066406 L 85.035156 10.0625 L 82.921875 7.535156 L 81.074219 10.328125 L 77.109375 7.132812 L 73.9375 10.191406 L 70.632812 7.265625 L 67.460938 9.929688 L 62.046875 7.003906 C 62.046875 7.003906 59.667969 9.527344 59.667969 9.527344 C 59.667969 9.527344 55.835938 7.003906 55.835938 7.003906 L 53.589844 9.660156 L 50.285156 6.734375 L 47.113281 10.191406 L 43.945312 6.601562 L 39.714844 10.460938 L 36.679688 7.402344 L 32.714844 10.460938 C 32.714844 10.460938 29.542969 6.472656 29.542969 6.472656 L 26.371094 10.191406 L 23.464844 6.335938 L 18.972656 9.796875 L 13.558594 6.335938 L 13.6875 10.730469 L 9.191406 13.519531 L 11.441406 14.980469 L 13.289062 16.445312 L 9.59375 19.238281 L 11.441406 20.703125 L 11.441406 21.371094 L 13.949219 22.695312 L 9.0625 25.492188 L 11.441406 26.953125 L 11.441406 27.222656 L 13.949219 28.6875 L 8.929688 31.480469 L 11.441406 32.945312 L 13.820312 35.601562 L 9.191406 38.394531 L 11.570312 39.859375 L 14.082031 41.320312 L 9.0625 44.117188 L 11.570312 45.578125 L 11.570312 46.511719 L 13.6875 47.972656 L 9.328125 50.230469 L 11.441406 51.5625 L 12.765625 53.027344 L 9.984375 55.820312 L 11.308594 57.285156 L 11.308594 57.414062 L 12.894531 58.878906 L 9.328125 62.074219 L 13.027344 64.734375 L 9.0625 66.199219 L 12.496094 67.792969 L 10.253906 70.589844 L 11.441406 71.914062 L 13.027344 73.378906 L 9.855469 76.171875 L 13.949219 79.367188 L 8.929688 82.160156 L 11.441406 83.625 L 11.441406 83.753906 L 14.082031 85.21875 L 10.121094 93.335938 L 17.785156 89.476562 L 19.238281 92.269531 L 20.558594 94.664062 L 23.335938 90.671875 L 24.652344 93.066406 L 24.785156 93.066406 L 26.238281 95.328125 L 29.011719 90.9375 L 30.464844 93.066406 L 30.734375 93.066406 L 32.050781 95.730469 L 34.832031 90.539062 L 36.148438 93.203125 L 36.546875 93.203125 L 37.867188 95.859375 L 40.644531 90.671875 L 41.960938 93.335938 L 42.222656 93.335938 L 43.546875 96.128906 L 46.320312 90.539062 L 47.644531 93.335938 L 47.773438 93.335938 L 49.230469 95.589844 L 52.003906 91.070312 L 53.324219 93.335938 L 54.117188 93.335938 L 55.574219 95.589844 L 58.347656 91.070312 L 59.667969 93.335938 L 60.324219 93.335938 L 61.648438 95.328125 L 64.421875 91.339844 L 65.746094 93.335938 L 66.140625 93.335938 L 67.460938 95.328125 L 70.234375 91.339844 L 71.558594 93.335938 L 71.957031 93.335938 L 73.277344 95.195312 L 76.046875 91.472656 L 77.371094 93.335938 L 78.035156 93.335938 L 79.351562 95.730469 L 82.128906 90.9375 L 84.109375 93.203125 L 86.488281 95.589844 L 87.941406 90.808594 L 93.886719 91.339844 L 92.570312 88.542969 L 95.34375 87.480469 L 97.191406 86.019531 L 93.355469 83.222656 L 95.210938 81.761719 L 97.058594 80.296875 L 93.226562 77.503906 L 95.078125 76.039062 L 96.796875 74.578125 L 93.355469 71.78125 L 95.078125 70.320312 L 96.796875 68.855469 L 93.757812 66.59375 L 97.191406 63.667969 L 93.757812 60.878906 L 95.472656 59.410156 L 95.472656 59.015625 L 97.191406 57.550781 L 93.757812 54.757812 L 97.191406 51.832031 L 93.757812 49.304688 L 95.472656 47.835938 Z M 45.664062 40.921875 L 45.796875 40.660156 L 45.796875 40.257812 L 45.925781 39.726562 L 45.925781 39.328125 L 46.1875 38.925781 L 46.320312 38.394531 L 46.058594 37.863281 L 46.1875 37.464844 L 46.457031 37.0625 L 46.457031 33.605469 L 46.589844 33.207031 L 46.589844 32.675781 L 46.457031 32.273438 L 46.457031 31.613281 L 46.71875 31.210938 L 46.980469 30.941406 L 47.25 30.679688 L 47.382812 30.410156 L 47.644531 30.410156 L 47.90625 30.8125 L 47.90625 31.613281 L 48.042969 32.011719 L 47.90625 32.40625 L 48.042969 32.804688 L 47.773438 33.335938 L 47.90625 33.738281 L 47.90625 35.070312 L 47.773438 35.46875 L 47.773438 36.265625 L 47.644531 36.664062 L 47.644531 37.0625 L 47.773438 37.195312 L 48.175781 37.195312 L 48.4375 36.664062 L 48.832031 36.265625 L 49.097656 35.871094 L 49.097656 35.46875 L 49.230469 35.199219 L 49.625 34.800781 L 49.761719 34.539062 L 50.023438 34.136719 L 50.417969 33.875 L 50.683594 33.476562 L 50.945312 33.207031 L 51.476562 32.675781 L 51.738281 32.273438 L 52.003906 32.011719 L 52.402344 31.742188 L 52.796875 31.742188 L 53.195312 31.613281 L 53.855469 31.613281 L 54.117188 31.875 L 54.117188 32.273438 L 54.25 32.675781 L 54.25 33.476562 L 54.117188 33.476562 L 53.855469 33.738281 L 52.796875 33.738281 L 52.402344 34.007812 L 51.871094 34.136719 L 51.476562 34.40625 L 51.476562 34.667969 L 51.078125 34.9375 L 50.816406 35.199219 L 50.554688 35.46875 L 50.285156 35.871094 L 50.023438 36.132812 L 49.761719 36.53125 L 49.625 36.933594 L 49.625 37.332031 L 49.492188 37.59375 L 49.359375 37.59375 L 49.097656 37.996094 L 48.96875 38.394531 L 48.699219 38.796875 L 48.566406 39.195312 L 48.4375 39.589844 L 48.4375 39.988281 L 48.175781 40.390625 L 48.042969 40.789062 L 47.773438 41.191406 L 47.511719 41.589844 L 47.382812 41.984375 L 47.113281 42.253906 L 46.71875 42.253906 L 46.320312 41.984375 L 46.058594 41.722656 L 45.796875 41.589844 L 45.527344 41.191406 L 45.527344 40.921875 Z M 54.648438 48.375 L 54.648438 48.769531 L 54.78125 49.167969 L 54.648438 49.570312 L 54.78125 49.96875 L 54.78125 51.03125 L 54.648438 51.429688 L 54.648438 53.558594 L 55.175781 53.558594 L 55.441406 53.027344 L 55.835938 52.625 L 56.097656 52.230469 L 56.097656 51.832031 L 56.230469 51.5625 L 56.628906 51.164062 L 56.761719 50.898438 L 57.023438 50.5 L 57.421875 50.230469 L 57.683594 49.835938 L 58.214844 49.304688 L 58.476562 49.035156 L 58.746094 48.636719 L 59.007812 48.375 L 59.53125 48.105469 L 59.933594 48.105469 L 60.324219 47.972656 L 60.988281 47.972656 L 61.386719 48.238281 L 61.648438 49.035156 L 61.648438 49.699219 L 61.253906 49.96875 L 60.195312 49.96875 L 59.53125 50.230469 L 59.007812 50.367188 L 58.746094 50.632812 L 58.347656 50.898438 L 57.953125 51.164062 L 57.421875 51.695312 L 57.160156 52.09375 L 56.890625 52.363281 L 56.628906 52.761719 L 56.496094 53.164062 L 56.367188 53.558594 L 56.367188 53.824219 L 56.230469 53.824219 L 55.96875 54.226562 L 55.96875 54.625 L 55.703125 55.019531 L 55.441406 55.820312 L 55.304688 56.351562 L 55.042969 57.152344 L 54.78125 57.683594 L 54.511719 58.082031 L 54.382812 58.484375 L 54.25 58.746094 L 53.855469 58.746094 L 53.324219 58.484375 L 53.0625 58.214844 L 52.796875 58.082031 L 52.53125 57.816406 L 52.53125 57.285156 L 52.664062 57.019531 L 52.664062 56.621094 L 52.796875 56.222656 L 52.796875 55.820312 L 53.0625 55.289062 L 53.195312 54.757812 L 52.925781 54.226562 L 53.0625 53.824219 L 53.324219 53.027344 L 53.324219 51.695312 L 53.195312 51.300781 L 53.324219 50.898438 L 53.324219 50.101562 L 53.457031 49.699219 L 53.457031 49.167969 L 53.324219 48.769531 L 53.195312 48.238281 L 53.195312 47.835938 L 53.457031 47.441406 L 53.71875 47.042969 L 53.988281 46.773438 L 54.117188 46.511719 L 54.382812 46.511719 L 54.648438 46.910156 Z M 24.523438 33.875 L 24.785156 33.476562 L 25.183594 33.074219 L 25.707031 32.273438 L 26.238281 31.875 L 26.636719 31.480469 L 27.03125 31.210938 L 27.5625 31.082031 L 28.085938 30.941406 L 28.488281 30.8125 L 28.617188 30.8125 L 29.011719 30.546875 L 30.734375 30.546875 L 31.128906 30.8125 L 31.390625 31.082031 L 32.050781 31.082031 L 32.453125 31.613281 L 32.714844 32.011719 L 32.976562 32.144531 L 33.109375 32.144531 L 33.375 32.40625 L 33.636719 33.074219 L 33.902344 33.335938 L 33.769531 33.738281 L 33.769531 34.136719 L 33.636719 34.667969 L 33.507812 35.070312 L 33.507812 35.46875 L 33.109375 36.132812 L 32.84375 36.664062 L 32.582031 37.0625 L 32.050781 37.332031 L 31.789062 37.59375 L 31.390625 38.128906 L 30.867188 38.394531 L 30.597656 38.660156 L 30.203125 38.796875 L 29.804688 38.796875 L 29.542969 38.925781 L 29.148438 39.058594 L 28.75 38.925781 L 28.085938 38.925781 L 27.5625 39.058594 L 27.03125 38.925781 L 26.5 39.058594 L 26.109375 39.058594 L 25.707031 39.457031 L 25.84375 39.726562 L 26.636719 40.523438 L 27.03125 40.921875 L 27.5625 41.191406 L 28.085938 41.320312 L 28.488281 41.589844 L 29.410156 41.589844 L 29.804688 41.453125 L 30.464844 41.320312 L 30.867188 41.054688 L 31.257812 40.789062 L 31.789062 40.523438 L 32.050781 40.660156 L 32.316406 40.921875 L 32.316406 41.453125 L 32.183594 41.851562 L 31.921875 42.253906 L 31.527344 42.515625 L 31.128906 42.652344 L 30.734375 42.917969 L 30.597656 43.183594 L 28.878906 43.183594 L 28.617188 43.316406 L 28.488281 43.449219 L 28.085938 43.316406 L 27.695312 43.054688 L 27.164062 42.785156 L 26.902344 42.652344 L 26.5 42.515625 L 26.109375 42.253906 L 25.707031 41.851562 L 25.316406 41.453125 L 24.921875 41.191406 L 24.523438 40.789062 L 24.257812 40.523438 L 23.859375 40.121094 L 23.859375 39.195312 L 23.730469 38.527344 L 23.730469 38.394531 L 23.597656 38.128906 L 23.464844 37.734375 L 23.464844 36.53125 L 23.199219 36 L 23.464844 35.601562 L 23.597656 35.46875 L 23.859375 35.199219 L 23.992188 34.800781 L 24.257812 34.269531 Z M 17.652344 43.980469 L 17.121094 43.585938 L 16.59375 43.316406 L 16.59375 42.785156 L 17.121094 42.382812 L 17.652344 42.121094 L 18.046875 41.722656 L 18.578125 41.320312 L 18.972656 41.054688 L 19.371094 40.390625 L 19.632812 39.726562 L 19.632812 38.796875 L 19.238281 38.394531 L 19.101562 37.863281 L 18.972656 37.332031 L 18.707031 36.800781 L 18.308594 36.265625 L 18.179688 35.734375 L 18.179688 35.199219 L 18.046875 34.667969 L 18.179688 34.007812 L 18.308594 33.476562 L 18.578125 33.074219 L 18.707031 32.542969 L 18.972656 32.144531 L 19.238281 31.480469 L 19.765625 31.210938 L 20.164062 30.8125 L 20.6875 30.410156 L 20.957031 30.015625 L 21.351562 29.75 L 21.617188 29.347656 L 21.878906 28.949219 L 22.542969 28.554688 L 23.066406 28.6875 L 23.730469 29.347656 L 24.128906 29.617188 L 24.128906 30.28125 L 23.597656 30.679688 L 23.199219 31.082031 L 22.671875 31.082031 L 22.144531 31.210938 L 21.617188 31.613281 L 21.21875 32.144531 L 20.824219 32.40625 L 20.425781 33.074219 L 19.894531 33.605469 L 19.765625 34.136719 L 19.632812 34.539062 L 19.632812 35.601562 L 19.894531 36.132812 L 20.03125 36.800781 L 20.292969 37.332031 L 20.6875 37.734375 L 20.957031 38.394531 L 20.957031 38.660156 L 21.351562 38.925781 L 21.617188 39.328125 L 21.617188 40.523438 L 21.21875 41.320312 L 20.824219 41.851562 L 20.425781 42.253906 L 19.894531 42.515625 L 19.5 42.917969 L 18.972656 43.316406 L 18.578125 43.585938 L 18.308594 43.980469 Z M 28.085938 77.234375 L 27.695312 77.503906 L 27.292969 77.773438 L 27.03125 78.433594 L 26.769531 78.566406 L 26.238281 78.566406 L 25.84375 78.433594 L 25.578125 78.304688 L 24.921875 78.304688 L 24.390625 78.433594 L 23.597656 78.433594 L 23.066406 78.035156 L 22.542969 77.902344 L 22.144531 77.773438 L 21.617188 77.636719 L 21.085938 77.503906 L 20.558594 77.101562 L 20.164062 76.839844 L 19.765625 76.304688 L 19.371094 75.773438 L 18.972656 75.378906 L 18.839844 74.839844 L 18.578125 74.445312 L 18.445312 73.914062 L 18.179688 73.515625 L 18.179688 72.445312 L 18.308594 71.914062 L 18.578125 71.25 L 18.972656 70.589844 L 18.972656 69.917969 L 19.5 69.519531 L 20.292969 68.726562 L 20.6875 68.324219 L 21.085938 67.925781 L 21.480469 67.664062 L 22.011719 67.394531 L 22.542969 66.863281 L 23.066406 66.59375 L 23.597656 66.332031 L 24.257812 66.0625 L 24.785156 65.800781 L 25.316406 65.53125 L 26.109375 65.660156 L 26.371094 66.0625 L 26.371094 66.730469 L 26.5 67.261719 L 26.109375 67.664062 L 25.707031 68.054688 L 24.390625 68.054688 L 23.992188 68.195312 L 23.597656 68.457031 L 23.066406 68.457031 L 22.542969 68.988281 L 22.144531 69.386719 L 21.878906 69.789062 L 21.21875 70.320312 L 20.957031 70.71875 L 20.824219 71.25 L 20.824219 73.777344 L 21.21875 74.175781 L 21.480469 74.578125 L 21.75 75.109375 L 22.011719 75.507812 L 22.671875 75.910156 L 23.335938 76.039062 L 23.992188 76.171875 L 25.183594 76.171875 L 25.707031 76.441406 L 26.238281 76.171875 L 26.902344 76.171875 L 27.429688 76.039062 L 27.957031 76.441406 Z M 29.410156 66.460938 L 29.011719 66.332031 L 28.617188 65.53125 L 28.878906 64.597656 L 28.617188 64.335938 L 28.617188 62.605469 L 28.878906 62.074219 L 28.878906 61.011719 L 29.148438 60.339844 L 29.148438 59.808594 L 28.878906 59.410156 L 28.878906 59.148438 L 29.28125 58.746094 L 29.28125 58.082031 L 29.410156 57.683594 L 29.410156 53.957031 L 29.671875 53.292969 L 29.542969 52.761719 L 29.542969 50.367188 L 29.28125 49.699219 L 29.410156 49.304688 L 29.148438 48.90625 L 29.148438 48.503906 L 29.410156 48.238281 L 29.941406 48.375 L 30.464844 48.636719 L 30.867188 49.035156 L 31.128906 48.90625 L 31.390625 48.375 L 31.789062 47.835938 L 32.050781 47.304688 L 32.316406 46.910156 L 32.714844 46.511719 L 32.84375 46.109375 L 33.375 45.710938 L 33.636719 45.179688 L 34.429688 44.910156 L 34.695312 45.046875 L 35.09375 45.179688 L 35.753906 45.179688 L 36.148438 45.3125 L 36.546875 45.710938 L 36.941406 45.84375 L 37.339844 46.242188 L 37.601562 46.773438 L 37.734375 47.304688 L 37.996094 47.707031 L 38.265625 48.375 L 38.660156 48.769531 L 38.660156 49.304688 L 38.527344 49.96875 L 38.660156 50.632812 L 38.660156 51.164062 L 38.394531 51.695312 L 38.265625 52.230469 L 38.132812 52.625 L 37.734375 53.027344 L 37.339844 53.292969 L 37.074219 53.695312 L 36.679688 53.957031 L 36.410156 54.488281 L 36.015625 55.019531 L 35.617188 55.550781 L 35.222656 55.953125 L 33.902344 55.953125 L 33.246094 56.222656 L 32.316406 56.222656 L 31.789062 55.421875 L 31.527344 56.484375 L 31.660156 56.882812 L 31.660156 57.414062 L 31.527344 57.945312 L 31.257812 58.347656 L 31.257812 58.878906 L 31.128906 59.410156 L 31.257812 59.945312 L 30.996094 60.609375 L 31.128906 61.410156 L 30.867188 61.941406 L 30.867188 64.066406 L 30.464844 64.734375 L 30.464844 65.398438 L 30.203125 66.0625 L 29.804688 66.460938 Z M 38.789062 73.644531 L 38.660156 74.175781 L 38.660156 75.910156 L 38.527344 76.441406 L 38.394531 76.839844 L 38.132812 77.371094 L 37.867188 77.773438 L 37.339844 78.035156 L 36.808594 78.433594 L 36.28125 78.699219 L 35.753906 78.566406 L 34.300781 78.566406 L 33.769531 78.304688 L 33.246094 78.035156 L 32.714844 77.636719 L 31.921875 76.839844 L 31.527344 76.441406 L 31.128906 76.039062 L 30.867188 75.640625 L 30.734375 75.242188 L 30.464844 74.707031 L 30.074219 74.175781 L 30.203125 73.644531 L 30.203125 73.113281 L 30.464844 72.050781 L 30.597656 71.652344 L 30.867188 71.121094 L 30.867188 70.589844 L 30.996094 70.1875 L 31.390625 69.789062 L 31.789062 69.257812 L 32.183594 68.726562 L 32.582031 68.457031 L 33.246094 68.195312 L 33.769531 68.324219 L 34.167969 68.324219 L 34.695312 68.457031 L 36.148438 68.457031 L 36.546875 68.855469 L 36.546875 69.386719 L 37.074219 69.519531 L 37.472656 69.789062 L 38.132812 69.917969 L 38.394531 70.589844 L 38.789062 71.121094 Z M 39.851562 42.917969 L 39.320312 42.652344 L 38.789062 42.652344 L 38.394531 42.382812 L 37.867188 42.253906 L 37.472656 41.984375 L 36.941406 41.722656 L 36.546875 41.191406 L 36.148438 40.789062 L 35.886719 40.390625 L 35.753906 39.726562 L 35.488281 39.328125 L 35.355469 38.796875 L 35.09375 38.265625 L 35.09375 37.195312 L 35.222656 36.664062 L 35.488281 36 L 35.355469 35.339844 L 35.355469 34.667969 L 35.753906 34.40625 L 36.015625 34.007812 L 36.410156 33.605469 L 36.808594 33.207031 L 37.203125 32.804688 L 37.601562 32.542969 L 38.265625 32.273438 L 38.789062 31.742188 L 39.320312 31.480469 L 39.851562 31.210938 L 40.375 30.941406 L 40.90625 30.679688 L 41.4375 30.410156 L 42.222656 30.546875 L 42.492188 30.941406 L 42.492188 32.144531 L 42.359375 32.542969 L 41.960938 32.945312 L 40.644531 32.945312 L 40.246094 33.074219 L 39.714844 33.335938 L 39.1875 33.476562 L 38.660156 33.875 L 38.132812 34.9375 L 37.734375 35.339844 L 37.472656 35.871094 L 37.339844 36.53125 L 37.339844 38.925781 L 37.734375 39.457031 L 38.132812 39.859375 L 38.394531 40.390625 L 38.660156 40.789062 L 39.320312 41.191406 L 40.644531 41.453125 L 41.832031 41.453125 L 42.222656 41.722656 L 42.886719 41.453125 L 43.417969 41.453125 L 43.945312 41.320312 L 44.472656 41.722656 L 44.601562 41.984375 L 44.210938 42.253906 L 43.808594 42.515625 L 43.679688 43.316406 L 43.417969 43.449219 L 43.015625 43.449219 L 42.625 43.316406 L 42.359375 43.183594 L 41.699219 43.183594 L 41.039062 43.316406 L 40.246094 43.316406 Z M 40.773438 49.304688 L 40.773438 49.167969 L 41.167969 48.769531 L 41.699219 48.375 L 42.09375 47.972656 L 42.492188 47.574219 L 42.886719 47.175781 L 43.152344 46.773438 L 43.679688 46.640625 L 44.078125 46.375 L 44.472656 46.242188 L 45.003906 46.109375 L 45.394531 46.242188 L 45.796875 46.375 L 46.320312 46.375 L 46.71875 46.773438 L 47.25 46.773438 L 47.644531 46.910156 L 48.042969 47.175781 L 48.4375 47.441406 L 48.4375 47.972656 L 48.566406 48.503906 L 48.699219 48.90625 L 48.96875 49.4375 L 49.230469 49.835938 L 49.230469 50.367188 L 49.359375 50.898438 L 49.359375 51.429688 L 49.492188 51.964844 L 49.492188 52.894531 L 49.625 53.292969 L 49.761719 53.695312 L 49.890625 54.226562 L 49.625 54.625 L 49.492188 55.019531 L 49.492188 55.550781 L 49.625 55.953125 L 49.761719 56.484375 L 49.890625 56.882812 L 50.023438 57.152344 L 50.023438 57.414062 L 49.625 57.945312 L 49.359375 58.484375 L 49.097656 59.015625 L 49.097656 59.546875 L 48.96875 59.808594 L 48.4375 59.679688 L 48.042969 59.277344 L 47.113281 58.347656 L 46.320312 58.484375 L 46.058594 58.746094 L 43.808594 58.746094 L 43.152344 58.484375 L 42.753906 57.945312 L 42.492188 57.550781 L 42.492188 56.222656 L 42.753906 55.15625 L 42.753906 54.757812 L 43.152344 54.359375 L 43.546875 53.957031 L 43.945312 53.695312 L 44.339844 53.425781 L 44.871094 53.164062 L 45.394531 52.894531 L 45.925781 52.761719 L 46.457031 52.761719 L 46.851562 52.496094 L 47.25 52.761719 L 47.644531 52.761719 L 47.90625 52.363281 L 47.90625 51.832031 L 47.773438 51.300781 L 47.773438 50.769531 L 47.644531 50.230469 L 47.382812 49.699219 L 46.980469 49.304688 L 46.71875 48.90625 L 46.320312 48.636719 L 46.058594 48.375 L 45.925781 48.375 L 45.664062 48.238281 L 45.265625 48.238281 L 44.871094 48.375 L 44.472656 48.375 L 44.210938 48.769531 L 43.808594 49.035156 L 43.285156 49.304688 L 42.886719 49.570312 L 42.492188 49.699219 L 42.222656 49.96875 L 41.566406 49.835938 L 41.039062 49.570312 Z M 51.210938 76.039062 L 51.210938 77.234375 L 50.816406 77.636719 L 50.285156 77.503906 L 49.890625 77.503906 L 49.492188 77.101562 L 49.097656 76.839844 L 48.96875 76.304688 L 48.96875 74.839844 L 48.832031 74.445312 L 48.4375 73.914062 L 48.175781 73.246094 L 47.773438 72.984375 L 46.589844 72.984375 L 45.925781 73.113281 L 45.527344 73.644531 L 45.132812 73.914062 L 45.003906 74.308594 L 44.738281 74.707031 L 44.339844 74.976562 L 44.078125 75.507812 L 43.679688 76.171875 L 43.679688 76.839844 L 43.417969 77.371094 L 42.886719 77.234375 L 42.492188 77.234375 L 41.960938 76.703125 L 41.4375 76.304688 L 41.4375 75.910156 L 41.699219 75.507812 L 41.699219 73.246094 L 41.566406 72.714844 L 41.699219 72.183594 L 41.167969 71.382812 L 41.300781 70.851562 L 41.300781 69.917969 L 41.832031 69.519531 L 42.222656 69.519531 L 42.753906 69.65625 L 43.152344 69.65625 L 43.152344 71.25 L 43.285156 71.78125 L 43.285156 72.582031 L 43.546875 72.847656 L 43.808594 72.582031 L 44.339844 71.914062 L 44.871094 71.652344 L 45.265625 71.25 L 45.664062 70.984375 L 46.1875 70.71875 L 46.851562 70.453125 L 47.382812 70.320312 L 48.042969 70.453125 L 48.699219 70.851562 L 48.96875 71.25 L 49.230469 71.519531 L 49.492188 72.050781 L 49.761719 72.582031 L 50.152344 72.984375 L 50.417969 73.378906 L 50.816406 73.777344 L 50.945312 74.445312 L 51.347656 74.976562 L 51.347656 75.640625 Z M 61.519531 66.992188 L 61.117188 67.523438 L 59.800781 67.523438 L 59.140625 67.664062 L 58.609375 67.664062 L 58.214844 67.925781 L 57.953125 68.195312 L 57.554688 68.855469 L 57.683594 69.386719 L 57.554688 69.917969 L 57.554688 70.984375 L 57.421875 71.519531 L 57.421875 71.914062 L 57.289062 72.582031 L 56.890625 73.113281 L 57.023438 73.644531 L 57.023438 74.578125 L 56.890625 75.109375 L 56.761719 75.773438 L 56.761719 76.441406 L 56.628906 77.101562 L 56.496094 77.503906 L 56.367188 78.035156 L 56.367188 78.699219 L 56.097656 78.964844 L 55.042969 78.964844 L 54.25 78.304688 L 54.25 77.636719 L 54.511719 76.839844 L 54.511719 76.304688 L 54.78125 75.640625 L 54.78125 73.515625 L 55.042969 72.847656 L 55.042969 72.183594 L 55.175781 71.652344 L 55.304688 70.984375 L 55.574219 70.589844 L 55.574219 68.054688 L 55.042969 67.523438 L 54.382812 67.394531 L 53.71875 67.394531 L 53.195312 67.523438 L 52.664062 67.394531 L 52.003906 67.523438 L 51.609375 67.394531 L 51.609375 66.992188 L 51.476562 66.59375 L 51.476562 66.332031 L 51.738281 66.199219 L 52.132812 66.199219 L 52.664062 66.0625 L 53.0625 65.929688 L 53.71875 65.800781 L 54.382812 65.929688 L 55.574219 65.929688 L 55.96875 65.660156 L 56.230469 65.398438 L 56.230469 64.734375 L 56.367188 64.066406 L 56.496094 63.535156 L 56.496094 62.203125 L 56.367188 61.542969 L 56.496094 61.011719 L 56.628906 60.742188 L 57.023438 60.878906 L 57.421875 61.011719 L 57.816406 61.011719 L 57.816406 61.671875 L 57.953125 62.203125 L 57.953125 62.734375 L 57.816406 63.40625 L 57.816406 64.066406 L 57.683594 64.734375 L 57.683594 65.265625 L 58.214844 65.660156 L 58.875 65.660156 L 59.53125 65.53125 L 60.726562 65.53125 L 60.988281 65.398438 L 61.253906 65.929688 L 61.253906 66.460938 L 61.519531 66.730469 Z M 61.78125 42.917969 L 61.648438 43.183594 L 59.800781 43.183594 L 59.53125 43.316406 L 59.53125 43.449219 L 59.140625 43.316406 L 58.746094 43.054688 L 58.214844 42.785156 L 57.816406 42.652344 L 57.421875 42.515625 L 57.023438 42.253906 L 56.628906 41.851562 L 56.230469 41.453125 L 55.835938 41.191406 L 55.574219 40.789062 L 55.304688 40.523438 L 54.910156 40.121094 L 54.78125 39.726562 L 54.648438 39.058594 L 54.648438 38.394531 L 54.382812 37.996094 L 54.382812 37.863281 L 54.25 37.59375 L 54.25 35.871094 L 54.382812 35.601562 L 54.511719 35.46875 L 54.78125 35.070312 L 54.910156 34.667969 L 55.175781 34.136719 L 55.574219 33.738281 L 55.835938 33.335938 L 56.230469 32.945312 L 56.496094 32.542969 L 56.761719 32.144531 L 57.160156 31.742188 L 57.554688 31.34375 L 57.953125 31.082031 L 58.476562 30.941406 L 59.007812 30.8125 L 59.402344 30.679688 L 59.53125 30.679688 L 59.933594 30.410156 L 61.648438 30.410156 L 62.046875 30.679688 L 62.3125 30.941406 L 62.972656 30.941406 L 63.367188 31.480469 L 63.628906 31.875 L 63.898438 32.011719 L 64.027344 32.011719 L 64.289062 32.273438 L 64.421875 32.945312 L 64.691406 33.207031 L 64.558594 33.605469 L 64.558594 34.007812 L 64.421875 34.539062 L 64.289062 34.9375 L 64.289062 35.339844 L 63.765625 36.402344 L 63.496094 36.933594 L 63.105469 37.332031 L 62.835938 37.59375 L 62.441406 38.128906 L 61.910156 38.394531 L 61.648438 38.660156 L 61.253906 38.796875 L 60.855469 38.796875 L 60.59375 38.925781 L 60.0625 39.058594 L 59.667969 38.925781 L 59.140625 38.925781 L 58.609375 39.058594 L 58.082031 38.925781 L 57.554688 39.058594 L 57.160156 39.058594 L 56.761719 39.457031 L 56.890625 39.726562 L 57.289062 40.121094 L 57.683594 40.523438 L 58.082031 40.921875 L 58.609375 41.191406 L 59.140625 41.320312 L 59.53125 41.589844 L 60.460938 41.589844 L 60.855469 41.453125 L 61.386719 41.320312 L 61.910156 41.054688 L 62.3125 40.789062 L 62.835938 40.523438 L 63.105469 40.660156 L 63.367188 40.921875 L 63.367188 41.320312 L 63.234375 41.722656 L 62.972656 42.121094 L 62.574219 42.382812 L 62.179688 42.652344 Z M 71.820312 76.304688 L 71.425781 76.839844 L 71.164062 77.371094 L 70.898438 77.902344 L 70.898438 78.433594 L 70.632812 78.566406 L 70.234375 78.566406 L 69.839844 78.167969 L 69.441406 77.773438 L 68.785156 77.234375 L 68.125 77.371094 L 67.863281 77.636719 L 67.460938 77.636719 L 66.933594 77.773438 L 66.40625 77.773438 L 66.007812 77.636719 L 65.484375 77.636719 L 64.820312 77.371094 L 64.421875 76.839844 L 64.160156 76.441406 L 64.160156 74.976562 L 64.289062 74.445312 L 64.421875 74.046875 L 64.421875 73.644531 L 64.820312 73.246094 L 65.214844 72.847656 L 65.613281 72.445312 L 66.007812 72.183594 L 66.539062 71.914062 L 67.070312 71.652344 L 67.59375 71.519531 L 67.992188 71.519531 L 68.386719 71.25 L 68.785156 71.519531 L 69.179688 71.519531 L 69.441406 71.25 L 69.441406 70.589844 L 69.3125 70.058594 L 69.3125 69.519531 L 69.179688 68.988281 L 68.917969 68.457031 L 68.785156 68.195312 L 68.519531 67.792969 L 68.125 67.523438 L 67.726562 67.125 L 66.140625 67.125 L 65.875 67.664062 L 65.484375 67.925781 L 65.082031 68.195312 L 64.691406 68.457031 L 64.289062 68.59375 L 64.027344 68.855469 L 63.367188 68.726562 L 62.835938 68.457031 L 62.703125 68.195312 L 62.703125 68.054688 L 63.105469 67.664062 L 63.496094 67.261719 L 63.898438 66.863281 L 64.289062 66.460938 L 64.691406 66.0625 L 64.953125 65.660156 L 65.484375 65.53125 L 66.007812 65.265625 L 66.40625 65.128906 L 66.933594 65 L 67.460938 65.128906 L 67.863281 65.265625 L 68.253906 65.265625 L 68.65625 65.660156 L 69.179688 65.660156 L 69.578125 65.800781 L 69.972656 66.0625 L 70.371094 66.332031 L 70.371094 66.863281 L 70.503906 67.394531 L 70.632812 67.792969 L 70.898438 68.195312 L 71.164062 68.59375 L 71.164062 69.257812 L 71.296875 69.789062 L 71.296875 70.320312 L 71.425781 70.851562 L 71.425781 72.183594 L 71.691406 72.984375 L 71.425781 73.515625 L 71.425781 74.308594 L 71.820312 75.507812 L 72.089844 75.773438 Z M 72.613281 57.414062 L 72.21875 57.945312 L 72.089844 58.484375 L 71.820312 59.015625 L 71.820312 59.546875 L 71.558594 59.679688 L 71.027344 59.546875 L 70.632812 59.148438 L 70.105469 58.878906 L 69.578125 58.347656 L 68.917969 58.484375 L 68.65625 58.746094 L 66.277344 58.746094 L 65.613281 58.484375 L 65.082031 57.945312 L 64.820312 57.550781 L 64.820312 56.621094 L 64.953125 56.222656 L 65.082031 55.6875 L 65.082031 54.757812 L 65.484375 54.359375 L 66.007812 53.957031 L 66.40625 53.695312 L 66.800781 53.425781 L 67.332031 53.164062 L 67.726562 52.894531 L 68.253906 52.761719 L 68.65625 52.761719 L 69.046875 52.496094 L 69.441406 52.761719 L 69.710938 52.761719 L 69.972656 52.363281 L 69.972656 51.832031 L 70.105469 51.164062 L 70.105469 50.632812 L 69.972656 50.101562 L 69.710938 49.570312 L 69.441406 49.304688 L 69.179688 48.90625 L 68.785156 48.636719 L 68.519531 48.375 L 68.386719 48.375 L 68.125 48.238281 L 67.726562 48.238281 L 67.199219 48.375 L 66.800781 48.375 L 66.539062 48.769531 L 66.140625 49.035156 L 65.875 49.304688 L 65.484375 49.570312 L 64.953125 49.699219 L 64.691406 49.96875 L 64.027344 49.835938 L 63.496094 49.570312 L 63.234375 49.304688 L 63.367188 49.167969 L 64.558594 47.972656 L 64.953125 47.574219 L 65.351562 47.175781 L 65.613281 46.773438 L 66.140625 46.640625 L 66.539062 46.375 L 67.070312 46.242188 L 67.460938 46.109375 L 67.863281 46.242188 L 68.253906 46.375 L 68.65625 46.375 L 69.046875 46.773438 L 69.578125 46.773438 L 69.972656 46.910156 L 70.371094 47.175781 L 70.765625 47.441406 L 70.765625 47.972656 L 70.898438 48.503906 L 71.164062 48.90625 L 71.425781 49.4375 L 71.691406 49.835938 L 71.691406 50.367188 L 71.820312 50.898438 L 71.820312 51.429688 L 71.957031 51.964844 L 71.957031 53.425781 L 72.089844 53.824219 L 72.21875 54.359375 L 72.21875 54.625 L 72.089844 55.019531 L 72.089844 55.550781 L 72.21875 55.953125 L 72.21875 56.484375 L 72.351562 56.882812 L 72.484375 57.152344 L 72.484375 57.414062 Z M 73.804688 32.40625 L 73.144531 32.542969 L 72.613281 32.542969 L 72.21875 32.804688 L 71.957031 33.074219 L 71.425781 33.738281 L 71.558594 34.269531 L 71.425781 34.800781 L 71.425781 35.871094 L 71.296875 36.402344 L 71.296875 36.800781 L 71.164062 37.464844 L 70.898438 37.863281 L 70.898438 39.195312 L 70.765625 39.988281 L 70.632812 40.660156 L 70.632812 41.320312 L 70.371094 41.984375 L 70.234375 42.382812 L 69.972656 43.449219 L 69.710938 43.714844 L 68.65625 43.714844 L 68.253906 43.054688 L 68.253906 42.382812 L 68.519531 41.589844 L 68.519531 41.054688 L 68.785156 40.390625 L 68.785156 38.394531 L 69.046875 37.734375 L 68.917969 37.0625 L 69.046875 36.53125 L 69.179688 35.871094 L 69.441406 35.339844 L 69.441406 32.945312 L 68.917969 32.40625 L 68.253906 32.273438 L 67.59375 32.273438 L 67.070312 32.40625 L 66.539062 32.273438 L 65.875 32.40625 L 65.484375 32.273438 L 65.351562 32.011719 L 65.351562 31.742188 L 65.214844 31.34375 L 65.214844 31.082031 L 65.351562 30.941406 L 65.746094 30.941406 L 66.277344 30.8125 L 66.800781 30.679688 L 67.460938 30.546875 L 68.125 30.679688 L 69.3125 30.679688 L 69.710938 30.410156 L 69.972656 30.148438 L 69.972656 29.480469 L 70.105469 28.816406 L 70.234375 28.285156 L 70.234375 26.292969 L 70.371094 25.757812 L 70.503906 25.492188 L 70.898438 25.621094 L 71.296875 25.621094 L 71.691406 25.757812 L 71.691406 26.292969 L 71.820312 26.824219 L 71.820312 27.355469 L 71.691406 28.015625 L 71.691406 29.878906 L 72.21875 30.28125 L 72.882812 30.28125 L 73.539062 30.148438 L 74.070312 30.148438 L 74.730469 30.015625 L 74.992188 30.015625 L 75.261719 30.410156 L 75.261719 30.941406 L 75.523438 31.082031 L 75.390625 31.875 L 74.992188 32.40625 Z M 74.332031 38.527344 L 74.332031 37.996094 L 74.46875 37.464844 L 74.597656 36.933594 L 74.730469 36.53125 L 74.992188 36.132812 L 74.992188 35.601562 L 75.125 35.199219 L 75.523438 34.667969 L 75.917969 34.136719 L 76.316406 33.605469 L 76.710938 33.335938 L 77.371094 33.074219 L 77.902344 33.207031 L 80.28125 33.207031 L 80.675781 33.605469 L 80.675781 34.136719 L 81.207031 34.40625 L 81.597656 34.667969 L 82.261719 34.800781 L 82.65625 35.339844 L 83.054688 35.734375 L 83.054688 37.734375 L 82.792969 38.796875 L 82.792969 40.660156 L 82.65625 41.320312 L 82.523438 41.722656 L 82.261719 42.121094 L 82 42.652344 L 81.46875 42.917969 L 80.9375 43.316406 L 80.414062 43.585938 L 79.882812 43.449219 L 78.296875 43.449219 L 77.769531 43.183594 L 77.371094 42.917969 L 76.976562 42.652344 L 76.578125 42.253906 L 76.183594 41.851562 L 75.65625 41.320312 L 75.261719 40.921875 L 75.125 40.523438 L 74.992188 40.121094 L 74.730469 39.589844 L 74.332031 39.058594 Z M 83.316406 68.195312 L 83.316406 68.59375 L 82.921875 68.855469 L 82 68.855469 L 81.597656 69.125 L 81.074219 69.125 L 80.675781 69.519531 L 80.28125 69.789062 L 79.882812 70.058594 L 79.351562 70.589844 L 79.089844 70.984375 L 78.828125 71.25 L 78.5625 71.652344 L 78.425781 72.050781 L 78.296875 72.3125 L 78.296875 72.582031 L 78.035156 72.582031 L 77.769531 72.984375 L 77.632812 73.378906 L 77.371094 73.777344 L 76.976562 74.976562 L 76.839844 75.378906 L 76.710938 75.773438 L 76.183594 76.570312 L 76.316406 77.234375 L 76.046875 77.503906 L 75.65625 77.503906 L 75.125 77.234375 L 74.863281 76.972656 L 74.597656 76.839844 L 74.332031 76.441406 L 74.332031 75.910156 L 74.46875 75.640625 L 74.46875 75.242188 L 74.597656 74.707031 L 74.597656 74.308594 L 74.863281 73.777344 L 74.992188 73.246094 L 74.730469 72.714844 L 74.863281 72.3125 L 75.125 71.914062 L 75.125 68.855469 L 75.261719 68.324219 L 75.261719 67.925781 L 75.125 67.523438 L 74.992188 67.125 L 74.992188 66.730469 L 75.261719 66.332031 L 75.523438 66.0625 L 75.785156 65.800781 L 75.917969 65.53125 L 76.183594 65.53125 L 76.449219 65.929688 L 76.449219 66.730469 L 76.578125 67.125 L 76.449219 67.523438 L 76.578125 67.925781 L 76.449219 68.324219 L 76.578125 68.726562 L 76.578125 70.1875 L 76.449219 70.589844 L 76.449219 71.382812 L 76.316406 71.78125 L 76.316406 72.183594 L 76.449219 72.3125 L 76.839844 72.3125 L 77.109375 71.78125 L 77.503906 71.382812 L 77.769531 70.984375 L 77.769531 70.589844 L 77.902344 70.320312 L 78.296875 69.917969 L 78.425781 69.65625 L 78.695312 69.257812 L 79.089844 68.988281 L 79.351562 68.59375 L 79.621094 68.324219 L 79.882812 68.054688 L 80.144531 67.792969 L 80.414062 67.394531 L 80.675781 67.125 L 81.074219 66.863281 L 82.523438 66.863281 L 82.921875 67.125 L 83.183594 67.925781 L 83.183594 68.195312 Z M 91.246094 30.410156 L 90.847656 30.8125 L 90.453125 31.210938 L 89.921875 31.210938 L 89.398438 31.34375 L 88.335938 32.144531 L 87.941406 32.40625 L 87.542969 33.074219 L 87.148438 33.605469 L 87.019531 34.136719 L 86.886719 34.539062 L 86.886719 35.601562 L 87.148438 36.132812 L 87.28125 36.800781 L 87.542969 37.332031 L 87.941406 37.734375 L 88.207031 38.394531 L 88.207031 38.660156 L 88.472656 38.925781 L 88.734375 39.328125 L 88.734375 40.523438 L 88.335938 41.320312 L 87.941406 41.851562 L 87.542969 42.253906 L 87.019531 42.652344 L 86.226562 43.449219 L 85.695312 43.714844 L 85.433594 43.980469 L 84.769531 43.980469 L 84.242188 43.585938 L 83.714844 43.316406 L 83.714844 42.785156 L 84.242188 42.382812 L 84.640625 42.121094 L 85.035156 41.722656 L 85.433594 41.320312 L 85.828125 41.054688 L 86.355469 40.390625 L 86.621094 39.726562 L 86.621094 38.796875 L 86.226562 38.394531 L 86.09375 37.863281 L 86.09375 37.332031 L 85.828125 36.800781 L 85.433594 36.265625 L 85.300781 35.734375 L 85.300781 35.199219 L 85.171875 34.667969 L 85.300781 34.007812 L 85.433594 33.476562 L 85.695312 33.074219 L 85.828125 32.542969 L 86.09375 32.144531 L 86.355469 31.480469 L 86.886719 31.210938 L 87.28125 30.8125 L 87.679688 30.410156 L 87.941406 30.015625 L 88.335938 29.75 L 88.605469 29.347656 L 88.867188 28.949219 L 89.398438 28.554688 L 89.921875 28.6875 L 90.585938 29.21875 L 91.113281 29.617188 L 91.113281 30.410156 Z M 91.246094 30.410156 "/>
<path style=" stroke:none;fill-rule:evenodd;fill:rgb(100%,100%,100%);fill-opacity:1;" d="M 76.316406 38.925781 L 76.316406 39.457031 L 76.578125 39.859375 L 76.839844 40.390625 L 77.109375 40.789062 L 77.632812 41.191406 L 78.035156 41.589844 L 78.828125 41.589844 L 79.488281 41.722656 L 79.882812 41.589844 L 80.28125 41.453125 L 80.542969 41.054688 L 80.804688 40.523438 L 81.074219 40.121094 L 81.074219 38.925781 L 81.335938 38.265625 L 81.335938 37.734375 L 81.207031 37.0625 L 80.675781 36.664062 L 80.414062 36 L 80.144531 35.734375 L 79.882812 35.601562 L 79.488281 35.46875 L 78.957031 35.339844 L 77.902344 35.339844 L 77.371094 35.46875 L 76.976562 35.871094 L 76.578125 36.402344 L 76.316406 36.800781 L 76.183594 37.464844 L 76.316406 37.863281 L 76.183594 38.394531 Z M 76.316406 38.925781 "/>
<path style=" stroke:none;fill-rule:evenodd;fill:rgb(100%,100%,100%);fill-opacity:1;" d="M 46.980469 54.359375 L 46.457031 54.226562 L 46.058594 54.359375 L 45.925781 54.359375 L 45.664062 54.488281 L 45.132812 54.890625 L 44.601562 55.019531 L 44.210938 55.820312 L 44.078125 56.484375 L 44.472656 56.882812 L 44.738281 57.152344 L 45.664062 57.152344 L 45.925781 57.019531 L 46.058594 56.753906 L 46.589844 56.484375 L 46.980469 56.089844 L 47.511719 55.820312 L 47.511719 54.890625 Z M 46.980469 54.359375 "/>
<path style=" stroke:none;fill-rule:evenodd;fill:rgb(100%,100%,100%);fill-opacity:1;" d="M 36.941406 72.183594 L 36.546875 71.78125 L 36.28125 71.25 L 35.886719 70.851562 L 35.617188 70.71875 L 35.355469 70.589844 L 34.300781 70.589844 L 33.769531 70.453125 L 33.246094 70.589844 L 32.84375 70.984375 L 32.453125 71.519531 L 32.050781 71.914062 L 31.921875 72.714844 L 32.050781 72.984375 L 31.921875 73.644531 L 32.050781 74.175781 L 32.050781 74.578125 L 32.316406 75.109375 L 32.714844 75.507812 L 32.976562 75.910156 L 33.375 76.304688 L 33.902344 76.703125 L 35.617188 76.703125 L 36.148438 76.570312 L 36.410156 76.171875 L 36.679688 75.773438 L 36.941406 75.242188 L 36.941406 74.175781 L 37.203125 73.378906 L 37.074219 72.847656 Z M 36.941406 72.183594 "/>
</g>
</svg>
